<svg width="48" height="48" viewBox="0 0 48 48" fill="none" xmlns="http://www.w3.org/2000/svg">
<g id="bacteria 1">
<path id="Vector" d="M20.5808 10.796L20.9333 11.1879L21.306 10.8152L23.1212 9.00007L23.8283 9.70718L21.7415 11.7939L21.4882 12.0473L21.6467 12.3686C22.1014 13.2909 22.3571 14.3292 22.3571 15.4286C22.3571 17.87 23.2144 20.1125 24.6437 21.8697L24.9934 22.2995L25.3852 21.9078L27.2928 20.0001L28 20.7072L26.0922 22.6149L25.7004 23.0068L26.1303 23.3564C27.8875 24.7856 30.13 25.6429 32.5714 25.6429C33.1833 25.6429 33.7759 25.7221 34.3399 25.8705L34.7093 25.9677L34.9002 25.637L36.317 23.183L37.1831 23.683L35.8962 25.912L35.6481 26.3417L36.0759 26.5931C38.1258 27.7975 39.5 30.0243 39.5 32.5714C39.5 33.5866 39.282 34.5495 38.8907 35.4169L38.7047 35.8293L39.0965 36.0555L41.2811 37.3168L40.7811 38.1828L38.5351 36.8861L38.1702 36.6754L37.9007 36.9994C36.629 38.5281 34.7139 39.5 32.5714 39.5C32.3842 39.5 32.1976 39.4978 32.0113 39.4936L31.5 39.4821V39.9935V42.5H30.5V39.8671V39.4164L30.0517 39.3698C27.0423 39.0568 24.1978 38.1893 21.6221 36.8715L21.199 36.655L20.9614 37.0666L19.683 39.2809L18.8169 38.7809L20.0855 36.5837L20.3279 36.1639L19.9158 35.9086C17.9817 34.7108 16.2297 33.2466 14.7112 31.5672L14.3585 31.1771L13.9867 31.5489L11.7072 33.8285L11 33.1214L13.4086 30.7129L13.7184 30.403L13.4519 30.0552C11.8474 27.961 10.5792 25.5958 9.72819 23.0405L9.57936 22.5936L9.1244 22.7155L6.61235 23.3886L6.35352 22.4227L8.8295 21.7593L9.30179 21.6327L9.18584 21.1577C8.73771 19.322 8.5 17.4034 8.5 15.4286C8.5 14.7926 8.58554 14.1775 8.74546 13.5937L8.84739 13.2215L8.51323 13.0286L6.18301 11.6832L6.68301 10.8172L8.80552 12.0426L9.23115 12.2883L9.48417 11.867C10.4773 10.2132 12.1402 9.0089 14.0956 8.62801L14.5 8.54923V8.13723V5.5H15.5V8.02165V8.48506L15.9621 8.52021C17.7917 8.65939 19.4231 9.50923 20.5808 10.796ZM14.5 16C14.5 15.7238 14.7238 15.5 15 15.5C15.2762 15.5 15.5 15.7238 15.5 16C15.5 16.2762 15.2762 16.5 15 16.5C14.7238 16.5 14.5 16.2762 14.5 16ZM15 12.5C13.067 12.5 11.5 14.067 11.5 16C11.5 17.933 13.067 19.5 15 19.5C16.933 19.5 18.5 17.933 18.5 16C18.5 14.067 16.933 12.5 15 12.5ZM23.5 30C23.5 29.7238 23.7238 29.5 24 29.5C24.2762 29.5 24.5 29.7238 24.5 30C24.5 30.2762 24.2762 30.5 24 30.5C23.7238 30.5 23.5 30.2762 23.5 30ZM24 26.5C22.067 26.5 20.5 28.067 20.5 30C20.5 31.933 22.067 33.5 24 33.5C25.933 33.5 27.5 31.933 27.5 30C27.5 28.067 25.933 26.5 24 26.5ZM17 26.5C18.3807 26.5 19.5 25.3807 19.5 24C19.5 22.6193 18.3807 21.5 17 21.5C15.6193 21.5 14.5 22.6193 14.5 24C14.5 25.3807 15.6193 26.5 17 26.5ZM32 34.5C33.3807 34.5 34.5 33.3807 34.5 32C34.5 30.6193 33.3807 29.5 32 29.5C30.6193 29.5 29.5 30.6193 29.5 32C29.5 33.3807 30.6193 34.5 32 34.5Z" fill="#1890FF" fill-opacity="0.3" stroke="#1890FF"/>
</g>
</svg>
