<svg width="48" height="48" viewBox="0 0 48 48" fill="none" xmlns="http://www.w3.org/2000/svg">
<g id="body 1">
<path id="Vector" d="M37.4401 15.5803L37.4401 15.5803C37.2083 14.7849 36.3757 14.3281 35.5803 14.5599L35.4404 14.0799L35.5803 14.5599C30.9724 15.9029 27.4677 16.5152 24.0065 16.4997C20.5401 16.4842 17.0289 15.8387 12.4012 14.5546C11.6028 14.3331 10.7762 14.8007 10.5546 15.599L37.4401 15.5803ZM37.4401 15.5803C37.6719 16.3756 37.2151 17.2083 36.4198 17.4401L36.4197 17.4401M37.4401 15.5803L36.4197 17.4401M36.4197 17.4401C34.0568 18.1287 31.9298 18.6449 29.916 18.9883L29.5 19.0592M36.4197 17.4401L29.5 19.0592M29.5 19.0592V19.4812M29.5 19.0592V19.4812M29.5 19.4812V30.9944V31V42C29.5 42.802 28.8692 43.4621 28.068 43.4985C27.2668 43.5348 26.5788 42.9345 26.5062 42.1358L25.5062 31.1358C25.502 31.0905 25.5 31.0452 25.5 31V30.5M29.5 19.4812L25.5 30.5M25.5 30.5H25M25.5 30.5H25M25 30.5H23H22.5M25 30.5H22.5M22.5 30.5V31M22.5 30.5V31M22.5 31C22.5 31.0452 22.498 31.0905 22.4939 31.1358L21.4939 42.1358C21.4213 42.9345 20.7332 43.5348 19.9321 43.4985C19.1309 43.4621 18.5 42.8019 18.5 42V19.4443V19.0231M22.5 31L18.5 19.0231M18.5 19.0231L18.085 18.9516M18.5 19.0231L18.085 18.9516M18.085 18.9516C16.0742 18.6048 13.9527 18.0985 11.599 17.4454L11.599 17.4454M18.085 18.9516L11.599 17.4454M11.599 17.4454C10.8007 17.2239 10.3332 16.3972 10.5546 15.599L11.599 17.4454ZM28 8.5C28 10.7092 26.2092 12.5 24 12.5C21.7909 12.5 20 10.7092 20 8.5C20 6.29086 21.7909 4.5 24 4.5C26.2092 4.5 28 6.29086 28 8.5Z" fill="#1890FF" fill-opacity="0.3" stroke="#1890FF"/>
</g>
</svg>
