<svg width="48" height="48" viewBox="0 0 48 48" fill="none" xmlns="http://www.w3.org/2000/svg">
<g id="gallbladder 1">
<path id="Vector" d="M36.305 7.66616L36.6237 6.71007C38.0673 7.37645 39.1008 8.77546 39.2185 10.4257C39.2643 11.0692 39.1716 11.7277 38.928 12.3806L38.5436 13.4113L39.5729 13.0233C41.0154 12.4795 42.4035 12.0508 43.3936 11.7808L43.6395 12.7503C41.6186 13.3025 38.024 14.4989 35.7668 15.9229C34.363 16.8086 33.382 17.7961 32.7101 18.9439L33.1416 19.1965L32.7101 18.9439C32.0439 20.0821 31.6646 21.4064 31.5026 22.9993L31.5 23.0245V23.0499V41.5H30.5V27C30.5 24.1591 29.3268 22.317 27.7192 21.2263C26.3353 20.2871 24.5983 19.8857 22.9463 19.9295L22.3853 19.9444L22.4646 20.4999C22.4879 20.6631 22.5 20.8301 22.5 21C22.5 22.3243 21.7648 23.4775 20.6778 24.0725C20.1593 24.3563 19.6257 24.7371 19.2161 25.2147C18.8043 25.6948 18.5 26.2956 18.5 27V32.7326L18.4825 32.9621C18.2468 36.0596 15.6582 38.5 12.5 38.5C9.34182 38.5 6.75314 36.0596 6.5175 32.9621L6.5 32.732V30C6.5 23.0964 12.0964 17.5 19 17.5C20.0976 17.5 21.0769 18.0046 21.7194 18.7965L21.8897 19.0063L22.1586 18.9788C24.2001 18.7701 26.4771 19.1749 28.2808 20.3987C28.774 20.7335 29.2263 21.1258 29.6259 21.5765L30.5 22.5625V21.2448V6.5H31.5V17.3085V18.8044L32.3995 17.6092C33.1155 16.6578 34.0483 15.8247 35.2332 15.0771C37.5841 13.594 38.3193 11.8753 38.221 10.4967C38.1333 9.26606 37.3802 8.20378 36.305 7.66616Z" fill="#1890FF" fill-opacity="0.3" stroke="#1890FF"/>
</g>
</svg>
