<svg width="48" height="48" viewBox="0 0 48 48" fill="none" xmlns="http://www.w3.org/2000/svg">
<g id="liver-alt 1">
<path id="Vector" d="M36.9398 21.0299L36.9399 21.0299C37.7202 20.1178 38.4477 19.0831 39.1234 17.9279C39.8109 16.7524 40.3761 15.382 40.8235 13.8219C41.2742 12.2498 41.5 10.6594 41.5 9.05172C41.5 8.30787 41.2794 7.66425 40.7874 7.18636C40.3031 6.71589 39.6724 6.5 38.9483 6.5C38.3709 6.5 37.6433 6.76474 36.8103 7.19746C35.9746 7.6316 35.145 8.10882 34.3214 8.62898L34.3214 8.62899C33.5417 9.12136 32.6154 9.57787 31.5381 9.9962C30.4794 10.4073 29.5318 10.6034 28.6897 10.6034C28.1722 10.6034 27.7189 10.6533 27.3505 10.7717L27.3504 10.7717C26.9494 10.9006 26.6201 11.1431 26.4311 11.5209C26.2981 11.7871 26.2038 12.0529 26.1734 12.3114C26.1486 12.5226 26.1379 12.8077 26.1379 13.1552C26.1379 14.6608 26.3706 16.1093 26.8372 17.498L36.9398 21.0299ZM36.9398 21.0299C36.1646 21.9362 35.4226 22.6432 34.7131 23.1354C34.0303 23.6088 33.3792 23.9138 32.7931 23.9138C32.1063 23.9138 31.3929 23.5944 30.6699 23.0634L30.6698 23.0634M36.9398 21.0299L30.6698 23.0634M30.6698 23.0634C29.9388 22.5266 29.238 21.8112 28.5645 20.9279M30.6698 23.0634L28.5645 20.9279M28.5645 20.9279C27.8711 20.0185 27.2984 18.8704 26.8372 17.4981L28.5645 20.9279ZM19.3952 13.8441L19.3953 13.8441C19.6581 13.855 20.0317 13.8767 20.5137 13.9088C21.0114 13.9421 21.4345 14.0043 21.7656 14.1062L21.7656 14.1062C22.0714 14.2003 22.3889 14.3278 22.7175 14.4864C23.0972 14.6697 23.4078 14.9269 23.6165 15.2698L23.6165 15.2698C23.8191 15.6025 23.9138 15.9777 23.9138 16.3793C23.9138 17.4744 24.1724 18.6241 24.7049 19.8323C25.2395 21.0457 25.9602 22.1791 26.8693 23.233L26.8702 23.234C27.1199 23.522 27.505 23.8795 28.0389 24.3087C28.5894 24.7513 29.0434 25.1393 29.398 25.4716C29.5863 25.6482 29.7461 25.8269 29.8618 26.0077L29.8619 26.0077C29.9756 26.1855 30.069 26.4 30.069 26.6379C30.069 27.3034 29.6643 27.9792 29.0559 28.6428L29.0559 28.6428C28.4452 29.3091 27.7381 29.9437 26.9365 30.5477C26.1673 31.1273 25.2673 31.8576 24.2357 32.7402L24.2357 32.7402C23.2148 33.6138 22.3865 34.4223 21.7456 35.1656L21.7456 35.1656L21.7408 35.1713C21.1131 35.9217 20.5775 36.7928 20.1361 37.7885C19.68 38.8174 19.3696 39.6224 19.1971 40.2109C19.1043 40.5276 19.0144 40.7889 18.9261 40.9786L19.3794 41.1896L18.9261 40.9786C18.8834 41.0703 18.8293 41.1712 18.76 41.2569C18.708 41.321 18.5497 41.5 18.2845 41.5C17.521 41.5 16.6368 41.1389 15.6619 40.5256C14.6646 39.898 13.6487 39.0226 12.613 37.9105L12.2471 38.2513L12.613 37.9105C11.579 36.8004 10.6016 35.5674 9.68015 34.2123C8.74491 32.837 7.98323 31.2954 7.39308 29.5905C6.80017 27.8777 6.5 26.2088 6.5 24.5862C6.5 22.6311 7.02972 20.8226 8.0855 19.1715C9.13879 17.5244 10.5726 16.2217 12.3757 15.2644C14.1825 14.3053 16.155 13.8276 18.2845 13.8276C18.757 13.8276 19.1284 13.8329 19.3952 13.8441Z" fill="#1890FF" fill-opacity="0.3" stroke="#1890FF"/>
</g>
</svg>
