<svg xmlns="http://www.w3.org/2000/svg" version="1.1" xmlns:xlink="http://www.w3.org/1999/xlink"
    xmlns:svgjs="http://svgjs.dev/svgjs" width="1500" height="1500" viewBox="0 0 1500 1500">
    <rect width="1500" height="1500" fill="#ffffff"></rect>
    <g
        transform="matrix(0.6666666666666666,0,0,0.6666666666666666,250.88393442622947,244.40971659919023)">
        <svg viewBox="0 0 244 247" data-background-color="#ffffff"
            preserveAspectRatio="xMidYMid meet" height="1518" width="1500"
            xmlns="http://www.w3.org/2000/svg" xmlns:xlink="http://www.w3.org/1999/xlink">
            <g id="tight-bounds"
                transform="matrix(1,0,0,1,-0.21567999999999188,-0.09999999999999432)">
                <svg viewBox="0 0 244.43135999999998 247.2" height="247.2"
                    width="244.43135999999998">
                    <g>
                        <svg></svg>
                    </g>
                    <g>
                        <svg viewBox="0 0 244.43135999999998 247.2" height="247.2"
                            width="244.43135999999998">
                            <g transform="matrix(1,0,0,1,0,69.95343472527472)">
                                <svg viewBox="0 0 244.43135999999998 107.29313054945055"
                                    height="107.29313054945055" width="244.43135999999998">
                                    <g>
                                        <svg viewBox="0 0 244.43135999999998 107.29313054945055"
                                            height="107.29313054945055" width="244.43135999999998">
                                            <g>
                                                <svg
                                                    viewBox="0 0 244.43135999999998 107.29313054945055"
                                                    height="107.29313054945055"
                                                    width="244.43135999999998">
                                                    <g>
                                                        <svg
                                                            viewBox="0 0 244.43135999999998 107.29313054945055"
                                                            height="107.29313054945055"
                                                            width="244.43135999999998">
                                                            <g id="textblocktransform">
                                                                <svg
                                                                    viewBox="0 0 244.43135999999998 107.29313054945055"
                                                                    height="107.29313054945055"
                                                                    width="244.43135999999998"
                                                                    id="textblock">
                                                                    <g>
                                                                        <svg
                                                                            viewBox="0 0 244.43135999999998 107.29313054945055"
                                                                            height="107.29313054945055"
                                                                            width="244.43135999999998">
                                                                            <g
                                                                                transform="matrix(1,0,0,1,0,0)">
                                                                                <svg
                                                                                    width="244.43135999999998"
                                                                                    viewBox="1 -35.05 81.89 35.949999999999996"
                                                                                    height="107.29313054945055"
                                                                                    data-palette-color="#0081d8">
                                                                                    <path
                                                                                        d="M18.3 0.9L18.3 0.9Q13.45 0.9 9.53-1.07 5.6-3.05 3.3-6.95 1-10.85 1-16.5L1-16.5Q1-20.8 2.4-24.05 3.8-27.3 6.23-29.5 8.65-31.7 11.83-32.8 15-33.9 18.55-33.9L18.55-33.9Q21.4-33.9 23.8-33.25 26.2-32.6 28.3-31.45L28.3-31.45 28.5-25.3 28-25.3 25.5-29.3Q25-30.25 24.4-31.03 23.8-31.8 22.9-32.2L22.9-32.2Q22.15-32.55 21.43-32.73 20.7-32.9 19.6-32.9L19.6-32.9Q16.7-32.9 14.33-31.35 11.95-29.8 10.53-26.23 9.1-22.65 9.1-16.45L9.1-16.45Q9.1-10.3 10.45-6.73 11.8-3.15 14.13-1.63 16.45-0.1 19.35-0.1L19.35-0.1Q20.95-0.1 21.9-0.33 22.85-0.55 23.8-1L23.8-1Q24.75-1.4 25.25-2.18 25.75-2.95 26.15-3.85L26.15-3.85 28.35-8.75 28.85-8.75 28.7-1.6Q26.6-0.5 24 0.2 21.4 0.9 18.3 0.9ZM43.7-24.8L43.7-24.8Q46.95-24.8 49.25-23.48 51.55-22.15 52.77-19.88 54-17.6 54-14.7L54-14.7Q54-14.15 53.95-13.58 53.9-13 53.75-12.55L53.75-12.55 38.85-12.55Q38.9-7.15 40.77-4.78 42.65-2.4 46.35-2.4L46.35-2.4Q48.85-2.4 50.4-3.2 51.95-4 53.3-5.55L53.3-5.55 53.8-5.1Q52.25-2.35 49.67-0.8 47.1 0.75 43.5 0.75L43.5 0.75Q39.95 0.75 37.2-0.78 34.45-2.3 32.9-5.15 31.35-8 31.35-11.95L31.35-11.95Q31.35-16.05 33.15-18.93 34.95-21.8 37.77-23.3 40.6-24.8 43.7-24.8ZM43.55-23.8L43.55-23.8Q42.1-23.8 41.07-22.93 40.05-22.05 39.47-19.83 38.9-17.6 38.85-13.55L38.85-13.55 47.4-13.55Q47.9-19 47-21.4 46.1-23.8 43.55-23.8ZM68.59 0L56.65 0 56.65-0.5 57.25-0.7Q59.05-1.3 59.05-3.2L59.05-3.2 59.05-29.95Q59.05-30.95 58.65-31.48 58.25-32 57.25-32.25L57.25-32.25 56.6-32.4 56.6-32.9 65.75-35.05 66.34-34.6 66.15-27.6 66.15-10.5Q66.15-8.65 66.17-6.83 66.2-5 66.2-3.2L66.2-3.2Q66.2-2.2 66.59-1.58 67-0.95 67.95-0.65L67.95-0.65 68.59-0.5 68.59 0ZM82.89 0L70.94 0 70.94-0.5 71.54-0.7Q73.34-1.3 73.34-3.2L73.34-3.2 73.34-29.95Q73.34-30.95 72.94-31.48 72.54-32 71.54-32.25L71.54-32.25 70.89-32.4 70.89-32.9 80.04-35.05 80.64-34.6 80.44-27.6 80.44-10.5Q80.44-8.65 80.47-6.83 80.49-5 80.49-3.2L80.49-3.2Q80.49-2.2 80.89-1.58 81.29-0.95 82.24-0.65L82.24-0.65 82.89-0.5 82.89 0Z"
                                                                                        opacity="1"
                                                                                        transform="matrix(1,0,0,1,0,0)"
                                                                                        fill="#0081d8"
                                                                                        class="wordmark-text-0"
                                                                                        data-fill-palette-color="primary"
                                                                                        id="text-0"></path>
                                                                                </svg>
                                                                            </g>
                                                                        </svg>
                                                                    </g>
                                                                </svg>
                                                            </g>
                                                        </svg>
                                                    </g>
                                                    <g></g>
                                                </svg>
                                            </g>
                                        </svg>
                                    </g>
                                </svg>
                            </g>
                            <path
                                d="M0 63.953L0 1 244.431 1 244.431 63.953 234.756 63.953 234.756 10.676 9.676 10.676 9.676 63.953 0 63.953M0 183.247L0 246.2 244.431 246.2 244.431 183.247 234.756 183.247 234.756 236.524 9.676 236.524 9.676 183.247 0 183.247"
                                fill="#0081d8" stroke="transparent"
                                data-fill-palette-color="tertiary"></path>
                        </svg>
                    </g>
                    <defs></defs>
                </svg>
                <rect width="244.43135999999998" height="247.2" fill="none" stroke="none"
                    visibility="hidden"></rect>
            </g>
        </svg>
    </g>
</svg>