<svg width="47" height="46" viewBox="0 0 47 46" fill="none" xmlns="http://www.w3.org/2000/svg">
<g clip-path="url(#clip0_2_39698)">
<path d="M21.9434 0.960549L1.77231 21.0479C0.687876 22.1278 0.687876 23.8721 1.77231 24.952L21.9434 45.0393C23.0278 46.1193 24.7794 46.1193 25.8638 45.0393L34.3213 36.617C35.2925 35.6499 35.2925 34.0818 34.3213 33.1146C33.3501 32.1475 31.7755 32.1475 30.8043 33.1146L24.3928 39.4995C24.1228 39.7683 23.7132 39.7683 23.4433 39.4995L7.33522 23.4584C7.0653 23.1896 7.0653 22.7816 7.33522 22.5128L23.4433 6.47166C23.7132 6.20287 24.1228 6.20287 24.3928 6.47166L30.8043 12.8566C31.7755 13.8237 33.3501 13.8237 34.3213 12.8566C35.2925 11.8894 35.2925 10.3213 34.3213 9.35419L25.8647 0.932769C24.7759 -0.123789 23.0237 -0.115236 21.9434 0.960549Z" fill="url(#paint0_linear_2_39698)"/>
<path d="M21.9434 0.960549L1.77231 21.0479C0.687876 22.1278 0.687876 23.8721 1.77231 24.952L21.9434 45.0393C23.0278 46.1193 24.7794 46.1193 25.8638 45.0393L34.3213 36.617C35.2925 35.6499 35.2925 34.0818 34.3213 33.1146C33.3501 32.1475 31.7755 32.1475 30.8043 33.1146L24.3928 39.4995C24.1228 39.7683 23.7132 39.7683 23.4433 39.4995L7.33522 23.4584C7.0653 23.1896 7.0653 22.7816 7.33522 22.5128L23.4433 6.47166C24.1154 5.8942 25.2119 4.72457 26.8222 4.45101C28.019 4.24771 29.3274 4.69517 30.7474 5.7934C29.798 4.84799 28.1705 3.22777 25.8647 0.932769C24.7759 -0.123789 23.0237 -0.115236 21.9434 0.960549Z" fill="url(#paint1_linear_2_39698)"/>
<path d="M36.2735 31.2464C37.2447 32.2136 38.8193 32.2136 39.7905 31.2464L46.0291 25.0337C47.1136 23.9538 47.1136 22.2095 46.0293 21.1297L39.7362 14.8851C38.7628 13.919 37.1876 13.9204 36.2159 14.8882C35.2447 15.8553 35.2447 17.4234 36.2159 18.3905L40.4662 22.6232C40.7361 22.892 40.7361 23.3 40.4662 23.5688L36.2735 27.7441C35.3023 28.7112 35.3023 30.2793 36.2735 31.2464Z" fill="url(#paint2_linear_2_39698)"/>
<path d="M24.0044 28.5239C27.0122 28.5239 29.4506 26.0957 29.4506 23.1004C29.4506 20.105 27.0122 17.6768 24.0044 17.6768C20.9965 17.6768 18.5582 20.105 18.5582 23.1004C18.5582 26.0957 20.9965 28.5239 24.0044 28.5239Z" fill="url(#paint3_linear_2_39698)"/>
</g>
<defs>
<linearGradient id="paint0_linear_2_39698" x1="22.1301" y1="0.146974" x2="41.2637" y2="11.8706" gradientUnits="userSpaceOnUse">
<stop stop-color="#4285EB"/>
<stop offset="1" stop-color="#2EC7FF"/>
</linearGradient>
<linearGradient id="paint1_linear_2_39698" x1="24.7011" y1="0.146972" x2="15.2945" y2="48.9258" gradientUnits="userSpaceOnUse">
<stop stop-color="#29CDFF"/>
<stop offset="0.378601" stop-color="#148EFF"/>
<stop offset="1" stop-color="#0A60FF"/>
</linearGradient>
<linearGradient id="paint2_linear_2_39698" x1="43.4009" y1="11.8507" x2="31.1406" y2="31.0889" gradientUnits="userSpaceOnUse">
<stop stop-color="#FA816E"/>
<stop offset="0.414726" stop-color="#F74A5C"/>
<stop offset="1" stop-color="#F51D2C"/>
</linearGradient>
<linearGradient id="paint3_linear_2_39698" x1="25.9789" y1="13.8054" x2="21.9058" y2="30.1528" gradientUnits="userSpaceOnUse">
<stop stop-color="#FA8E7D"/>
<stop offset="0.512635" stop-color="#F74A5C"/>
<stop offset="1" stop-color="#F51D2C"/>
</linearGradient>
<clipPath id="clip0_2_39698">
<rect width="46.1538" height="46" fill="white" transform="translate(0.807617)"/>
</clipPath>
</defs>
</svg>
